HIERARCHY
ROOT root
{
	OFFSET 0.000000 0.000000 0.000000
	CHANNELS 6 Xposition Yposition Zposition Zrotation Yrotation Xrotation
	JOINT lhip
	{
		OFFSET 0.058581 -0.082280 -0.017664
		CHANNELS 3 Zrotation Yrotation Xrotation
		JOINT lknee
		{
			OFFSET 0.043451 -0.386469 0.008037
			CHANNELS 3 Zrotation Yrotation Xrotation
			JOINT lankle
			{
				OFFSET -0.014790 -0.426874 -0.037428
				CHANNELS 3 Zrotation Yrotation Xrotation
				JOINT ltoe
				{
					OFFSET 0.041054 -0.060286 0.122042
					CHANNELS 3 Zrotation Yrotation Xrotation
					End Site
					{
						OFFSET 0.000000 0.000000 0.000000
					}
				}
			}
		}
	}
	JOINT rhip
	{
		OFFSET -0.060310 -0.090513 -0.013543
		CHANNELS 3 Zrotation Yrotation Xrotation
		JOINT rknee
		{
			OFFSET -0.043257 -0.383688 -0.004843
			CHANNELS 3 Zrotation Yrotation Xrotation
			JOINT rankle
			{
				OFFSET 0.019056 -0.420046 -0.034562
				CHANNELS 3 Zrotation Yrotation Xrotation
				JOINT rtoe
				{
					OFFSET -0.034840 -0.062106 0.130323
					CHANNELS 3 Zrotation Yrotation Xrotation
					End Site
					{
						OFFSET 0.000000 0.000000 0.000000
					}
				}
			}
		}
	}
	JOINT lowerback
	{
		OFFSET 0.004439 0.124404 -0.038385
		CHANNELS 3 Zrotation Yrotation Xrotation
		JOINT upperback
		{
			OFFSET 0.004488 0.137956 0.026820
			CHANNELS 3 Zrotation Yrotation Xrotation
			JOINT chest
			{
				OFFSET -0.002265 0.056032 0.002855
				CHANNELS 3 Zrotation Yrotation Xrotation
				JOINT lowerneck
				{
					OFFSET -0.013390 0.211636 -0.033468
					CHANNELS 3 Zrotation Yrotation Xrotation
					JOINT upperneck
					{
						OFFSET 0.010113 0.088937 0.050410
						CHANNELS 3 Zrotation Yrotation Xrotation
						End Site
						{
							OFFSET 0.000000 0.000000 0.000000
						}
					}
				}
				JOINT lclavicle
				{
					OFFSET 0.071702 0.114000 -0.018898
					CHANNELS 3 Zrotation Yrotation Xrotation
					JOINT lshoulder
					{
						OFFSET 0.122921 0.045205 -0.019046
						CHANNELS 3 Zrotation Yrotation Xrotation
						JOINT lelbow
						{
							OFFSET 0.255332 -0.015649 -0.022946
							CHANNELS 3 Zrotation Yrotation Xrotation
							JOINT lwrist
							{
								OFFSET 0.265709 0.012698 -0.007375
								CHANNELS 3 Zrotation Yrotation Xrotation
								End Site
								{
									OFFSET 0.000000 0.000000 0.000000
								}
							}
						}
					}
				}
				JOINT rclavicle
				{
					OFFSET -0.082954 0.112472 -0.023707
					CHANNELS 3 Zrotation Yrotation Xrotation
					JOINT rshoulder
					{
						OFFSET -0.113228 0.046853 -0.008472
						CHANNELS 3 Zrotation Yrotation Xrotation
						JOINT relbow
						{
							OFFSET -0.260127 -0.014369 -0.031269
							CHANNELS 3 Zrotation Yrotation Xrotation
							JOINT rwrist
							{
								OFFSET -0.269108 0.006794 -0.006027
								CHANNELS 3 Zrotation Yrotation Xrotation
								End Site
								{
									OFFSET 0.000000 0.000000 0.000000
								}
							}
						}
					}
				}
			}
		}
	}
}
MOTION
Frames: 14
Frame Time: 0.033333
0.062628 0.735414 0.999594 67.275536 -0.215498 87.415417 14.374606 4.509256 -15.525451 -4.468134 5.716651 39.290800 -7.639113 3.346048 -10.522785 0.000000 -0.000000 0.000000 -1.134398 -0.184320 -1.148214 -0.641875 1.976566 16.400674 2.551715 -3.344970 -18.462624 0.000000 -0.000000 0.000000 -0.851182 1.361080 11.234328 2.593263 -3.666388 1.445585 0.141368 -1.598195 2.597222 3.595247 6.866818 -11.099141 -6.543074 1.806613 10.713846 -25.941135 12.243885 -1.533514 -56.345669 2.784058 -3.079643 15.958128 -51.200750 5.467873 3.080304 -18.017744 -9.200537 21.720211 -3.099330 -5.369377 24.729356 25.872829 1.612468 -176.052368 61.684310 -137.592327 -15.873275 37.068275 15.680115 
0.081723 0.738350 0.997677 68.093721 -0.341277 87.787778 15.059222 4.760773 -15.323567 -3.750247 5.512862 32.692925 -6.650053 4.081130 -11.108172 0.000000 -0.000000 0.000000 -2.287462 -0.577176 0.429102 -0.033148 1.983111 15.041242 2.463379 -3.609130 -18.945922 0.000000 -0.000000 0.000000 -1.087069 1.630460 11.098245 2.276132 -3.832197 1.279997 -0.022215 -1.663620 2.092677 3.694824 7.054191 -10.845781 -5.647808 1.528515 10.236259 -25.494630 12.219418 -1.686643 -56.823242 3.375726 -4.018564 16.786570 -48.700392 5.415372 0.931128 -16.203282 -9.808348 21.286574 -3.245083 -6.254375 29.402485 26.583311 3.410935 -177.650947 60.020492 -138.137886 -11.526614 32.744941 12.091708 
0.100791 0.743046 0.994684 69.407136 -0.304847 88.670583 15.511456 4.549604 -15.682303 -2.997516 5.298238 25.190873 -6.359275 5.323511 -11.956441 0.000000 -0.000000 0.000000 -2.954291 -0.950991 0.749584 0.038385 1.811161 15.009186 2.678197 -3.948259 -19.975420 0.000000 -0.000000 0.000000 -1.126857 1.781038 10.544845 2.098196 -4.163484 1.055344 -0.251857 -1.535297 1.592170 3.819035 7.575826 -10.893317 -5.181432 0.157790 9.803366 -25.401215 11.904452 -1.380303 -57.223643 3.879098 -5.363126 18.066606 -47.000841 5.714309 -3.219677 -13.795450 -11.819015 20.654686 -3.440968 -6.176080 33.744175 25.918344 4.054810 -178.219233 57.111803 -134.318396 -10.588562 29.258819 4.993154 
0.120926 0.749418 0.991302 70.821054 0.032761 89.647464 15.668181 5.468155 -16.668789 -2.396013 5.432136 18.964597 -6.130184 6.568558 -11.644851 0.000000 -0.000000 0.000000 -3.908510 -2.939043 1.512495 0.805508 2.127836 13.853333 2.474912 -3.663870 -20.264197 0.000000 -0.000000 0.000000 -0.811855 1.964244 10.682653 1.958800 -4.420953 -0.670042 -0.467953 -1.682933 1.929452 4.380236 8.435072 -11.689882 -5.328609 -1.612670 10.678681 -25.810593 12.725050 -1.751030 -56.527806 3.905935 -5.802748 16.687413 -45.496526 8.636906 1.700018 -14.790030 -13.543036 21.037571 -4.448518 -5.868717 37.336271 26.874075 5.561261 176.593044 56.194970 -137.885682 -21.571706 28.200393 -10.607038 
0.143185 0.757047 0.987027 72.846349 -0.146246 90.079953 14.901673 5.281275 -17.647368 -2.042228 4.819624 15.031510 -6.131219 6.287739 -12.533670 0.000000 -0.000000 0.000000 -4.607320 -3.776316 2.428782 -0.331546 1.411246 14.303375 4.709562 -2.026185 -21.907946 0.000000 -0.000000 0.000000 -1.054435 2.534578 10.581339 2.092343 -5.000188 -0.983365 -0.694044 -1.811341 2.150502 4.412210 8.770020 -12.404413 -5.297184 -4.370446 10.626749 -25.897552 12.835972 -1.864360 -56.601941 3.646936 -5.743114 16.801894 -44.931007 8.292793 4.519456 -14.798360 -13.551910 21.828797 -4.743952 -6.121574 40.886810 25.629511 8.134627 174.828806 53.974746 -136.897168 -26.726729 25.182269 -9.572841 
0.167576 0.767240 0.981731 74.711034 -0.241699 90.649493 14.387420 4.287411 -19.069654 -2.728440 6.382288 13.778660 -5.623040 6.461951 -12.779215 0.000000 -0.000000 0.000000 -5.603119 -3.711004 3.761587 0.120526 0.808048 13.710590 3.934351 -5.315243 -21.878795 0.000000 -0.000000 0.000000 -1.308923 3.274062 9.988069 2.632002 -5.193133 -0.481218 -0.864705 -1.774892 2.085358 4.120496 7.609079 -14.302151 -5.406290 -5.809321 11.216118 -26.333326 12.677092 -1.229933 -56.569884 2.684170 -5.733710 16.785911 -44.706996 8.170523 2.767803 -14.490012 -14.579258 23.000348 -5.053717 -5.813907 42.955866 24.407127 10.672706 173.187867 51.706698 -135.666584 -25.294916 23.328420 -8.497416 
0.193450 0.780124 0.976022 75.904483 -0.164717 90.779566 13.296185 3.896075 -19.651089 -3.331353 7.513950 14.141218 -4.991443 7.148190 -12.619444 0.000000 -0.000000 0.000000 -6.432884 -3.805258 4.963651 -0.460701 0.273509 14.266353 4.232700 -5.394013 -22.080508 0.000000 -0.000000 0.000000 -0.824058 4.029536 9.955048 2.465945 -4.806345 -0.093235 -1.079005 -1.480052 2.240712 3.800950 5.383343 -15.038554 -4.692184 -7.964566 10.511985 -26.499180 11.860353 -1.092047 -57.039749 2.530381 -5.371440 17.720816 -45.088418 7.155944 2.436215 -14.836326 -14.177382 22.823813 -4.066738 -5.740496 45.816843 20.961301 13.081716 169.398147 51.057395 -138.384612 -22.277598 22.829528 -13.167588 
0.221150 0.795692 0.970390 77.171796 0.347647 90.852289 12.212283 3.813268 -20.682155 -3.172961 6.589915 17.868147 -3.811279 5.849744 -11.045459 0.000000 -0.000000 0.000000 -6.939155 -4.132458 6.115190 -0.907041 0.738691 15.377419 4.561432 -5.400879 -20.813716 0.000000 -0.000000 0.000000 -0.201995 4.246592 9.939412 2.549840 -4.345089 0.371016 -1.107449 -1.013532 2.385605 4.059160 2.458161 -16.758470 -4.330736 -9.799562 10.968524 -27.189773 12.241545 -1.368440 -56.956493 1.895797 -4.506727 17.719298 -46.169690 7.287820 3.328235 -15.544419 -13.495666 23.366587 -3.400789 -4.710638 46.538340 18.889227 15.133659 166.171509 53.038828 -143.301986 -22.193954 23.075932 -16.954439 
0.250550 0.814505 0.967545 78.741105 -0.116560 90.763885 10.739350 1.809655 -22.184309 -3.980572 5.252002 22.417200 -1.538143 7.172729 -12.650379 0.000000 -0.000000 0.000000 -8.524638 -4.188970 6.801461 -1.426388 0.678346 17.492710 5.191201 -6.931194 -19.842481 0.000000 -0.000000 0.000000 -0.198814 4.460647 10.451983 2.227485 -4.106716 0.109335 -1.210171 -0.645470 2.777268 4.509863 -0.962441 -17.589332 -3.151107 -11.575431 10.491185 -28.210444 12.888247 -1.880858 -56.192819 1.582996 -3.711423 17.889235 -47.405620 7.376987 0.159323 -14.799127 -13.831988 24.589419 -3.417976 -4.379425 47.149727 16.687549 16.950008 161.838373 56.680769 -149.434497 -17.075472 23.548894 -16.560837 
0.283882 0.833813 0.966200 79.824529 -0.960672 90.631776 8.958852 0.190965 -22.252911 -5.055008 5.052275 25.584707 0.251372 7.699470 -15.559043 0.000000 -0.000000 0.000000 -10.474270 -4.450413 6.105833 -2.879683 0.954823 23.056109 7.575708 -5.962331 -18.176839 0.000000 -0.000000 0.000000 -0.255331 5.538148 10.206468 1.887144 -3.077080 0.115624 -1.926442 -0.934343 3.487526 5.813082 -4.011340 -18.406252 -2.663686 -13.876088 10.774046 -28.192202 13.429855 -1.671245 -56.149183 0.517075 -2.406663 18.830339 -48.470549 4.507779 1.859554 -15.763972 -11.736339 25.916904 -4.408232 -5.537705 48.833543 13.498744 19.482096 157.421487 62.147468 -157.200955 -9.299668 25.833952 -9.269031 
0.318027 0.853118 0.965914 81.185599 -1.219433 90.150022 7.451464 -0.600819 -20.745325 -5.428484 5.711699 27.176970 1.466481 7.038884 -18.312339 0.000000 -0.000000 0.000000 -10.890708 -1.952704 4.620746 -4.138372 -0.804817 30.262631 8.652971 -8.061583 -13.542692 0.000000 -0.000000 0.000000 -0.519574 4.941672 10.322916 1.859500 -2.142988 0.396299 -1.865245 -0.660799 3.499567 6.420748 -7.758436 -18.095493 -1.549198 -14.695825 10.123912 -28.217265 13.807263 -1.570067 -56.484421 0.307050 -1.277907 20.558754 -49.137929 0.704291 0.490984 -15.474192 -10.730250 26.360689 -4.162509 -5.533121 49.941913 11.051195 21.258078 154.290635 68.356161 -164.256649 -0.213162 25.913995 -1.415561 
0.349572 0.871709 0.967720 82.913972 -1.232953 90.071429 5.918435 -1.155562 -19.457654 -6.078935 4.218100 28.227701 3.174962 6.879460 -20.113871 0.000000 -0.000000 0.000000 -10.265172 -1.425837 0.811166 -5.703802 -0.274597 38.925989 6.716419 -11.344047 -4.092139 0.000000 -0.000000 0.000000 -0.891769 3.812321 11.659696 1.818507 -1.484396 -1.161180 -1.298536 -0.556782 3.381310 6.275892 -11.946929 -17.834213 0.039704 -13.923098 10.280986 -28.437325 14.577248 -1.911869 -56.666816 0.865785 -0.997125 22.138356 -50.500984 -2.835522 0.282494 -15.102007 -9.017998 26.785122 -3.791964 -5.680038 50.207686 8.883284 22.376135 148.282178 74.283440 -175.635157 7.101200 25.569064 6.699809 
0.379749 0.887248 0.968920 84.978831 -1.480104 89.897736 4.396957 -2.356277 -17.538759 -6.705580 2.984915 27.415394 4.564719 8.096663 -21.474671 0.000000 -0.000000 0.000000 -9.314614 0.438856 -3.331628 -5.561849 -0.229763 47.448646 2.658189 -15.341216 2.237882 0.000000 -0.000000 0.000000 -1.917166 2.805212 11.567480 2.250572 -0.985127 -0.981997 -0.967257 -0.883483 4.148421 6.803492 -13.921266 -18.247138 0.752396 -14.332025 9.425186 -28.227572 14.500301 -1.616902 -56.608552 -0.304084 -0.166367 24.310596 -50.703927 -6.184160 -0.426582 -14.893855 -8.430526 27.496239 -3.564824 -5.960024 50.340584 8.393680 23.483113 141.507807 79.517471 174.100529 11.809875 23.802954 12.571011 
0.410274 0.901146 0.972508 87.670318 -1.413371 89.541820 2.980837 -3.106370 -15.066373 -7.036758 0.650603 26.792649 5.914851 8.386931 -22.251560 0.000000 -0.000000 0.000000 -8.451864 0.222499 -7.271934 -4.709067 -1.086368 54.066289 0.693791 -17.052591 0.444841 0.000000 -0.000000 0.000000 -2.142256 1.607719 12.304644 2.558134 -1.239501 -1.208971 -0.999891 -1.406262 4.119610 7.170073 -14.921490 -18.391095 0.978514 -15.142129 9.819927 -27.755094 13.843757 -1.163900 -55.929764 -0.734720 0.116997 25.736686 -50.897736 -8.335445 0.481903 -15.056344 -8.427112 28.001649 -3.140904 -6.004451 50.587434 7.006353 23.446013 132.961188 82.682889 164.737735 15.823911 22.683954 15.328711 
